<?xml version="1.0" standalone="no"?>
<!DOCTYPE svg PUBLIC "-//W3C//DTD SVG 20010904//EN"
 "http://www.w3.org/TR/2001/REC-SVG-20010904/DTD/svg10.dtd">
<svg version="1.0" xmlns="http://www.w3.org/2000/svg"
 width="1280.000000pt" height="853.000000pt" viewBox="0 0 1280.000000 853.000000"
 preserveAspectRatio="xMidYMid meet">

<g transform="translate(0.000000,853.000000) scale(0.100000,-0.100000)"
fill="#000000" stroke="none">
<path d="M7420 6721 c-349 -136 -725 -283 -835 -326 -110 -43 -219 -86 -242
-96 -23 -11 -45 -19 -48 -19 -4 0 -21 -6 -38 -14 -92 -39 -156 -66 -192 -79
-22 -8 -254 -99 -515 -202 -773 -304 -1621 -634 -1925 -747 -16 -6 -43 -17
-60 -23 -16 -7 -203 -79 -415 -161 -719 -276 -1190 -461 -1198 -469 -4 -5 -1
-5 6 -1 6 4 12 3 12 -2 0 -5 71 -97 158 -204 86 -107 168 -210 182 -228 14
-18 66 -83 115 -145 50 -61 104 -128 120 -150 17 -21 73 -91 125 -155 52 -64
106 -132 120 -150 14 -18 48 -61 75 -95 28 -33 64 -78 80 -100 28 -36 135
-168 205 -255 8 -10 33 -42 55 -71 22 -28 52 -66 66 -83 14 -17 76 -94 138
-171 133 -167 150 -188 221 -275 30 -37 70 -88 89 -112 l34 -43 46 21 c25 12
226 105 446 207 220 102 445 206 500 232 117 55 105 50 524 244 178 82 328
154 332 158 11 11 -57 93 -75 93 -7 0 -394 -173 -860 -385 -466 -212 -851
-385 -856 -385 -4 0 -30 28 -58 63 -27 34 -122 152 -211 262 -90 110 -215 265
-280 345 -64 80 -155 192 -202 250 -46 58 -143 177 -214 265 -71 88 -190 235
-265 326 -274 337 -405 501 -408 508 -4 11 3264 1307 3938 1562 349 132 867
333 1630 633 162 64 306 116 320 116 18 0 269 -201 939 -753 503 -413 919
-760 925 -770 8 -13 8 -20 -4 -27 -8 -5 -304 -141 -658 -302 -355 -161 -647
-299 -650 -306 -6 -16 56 -82 77 -82 9 0 120 47 246 105 127 59 448 206 715
329 306 140 485 228 485 237 0 7 -210 185 -466 394 -256 209 -714 583 -1018
830 -307 251 -561 451 -574 452 -12 1 -308 -109 -657 -246z"/>
<path d="M7647 6266 c-181 -74 -334 -139 -340 -145 -8 -8 -6 -16 8 -30 72 -68
998 -882 1013 -890 14 -7 75 16 277 105 402 177 428 189 432 201 6 16 -114
116 -140 115 -12 0 -132 -48 -266 -106 -134 -59 -254 -106 -267 -104 -12 2
-86 59 -164 127 -128 112 -140 125 -126 139 9 9 118 59 243 112 144 61 229
103 231 112 4 21 -103 108 -132 108 -11 0 -129 -45 -261 -100 -132 -55 -246
-100 -252 -100 -13 0 -229 181 -271 227 -12 13 -20 28 -17 32 2 5 113 53 246
107 133 55 244 105 247 113 3 7 -6 22 -19 33 -53 43 -102 78 -108 78 -3 -1
-154 -61 -334 -134z"/>
<path d="M6740 5863 c-95 -11 -212 -48 -345 -108 -27 -12 -104 -44 -170 -70
-162 -63 -162 -64 -100 -123 28 -25 252 -240 498 -477 247 -236 453 -431 458
-433 4 -2 52 15 106 38 54 23 112 48 128 55 17 7 55 25 86 39 31 14 59 26 63
26 3 0 43 17 89 39 150 70 231 153 263 270 15 52 16 71 6 124 -17 90 -73 197
-144 273 -231 247 -605 385 -938 347z m305 -153 c210 -40 437 -197 516 -356
78 -158 13 -292 -189 -385 -166 -77 -240 -109 -252 -109 -5 0 -60 49 -122 108
-62 60 -227 215 -365 346 -139 131 -253 244 -253 251 0 13 135 75 164 75 8 0
17 4 20 9 9 14 125 53 201 67 76 14 185 12 280 -6z"/>
<path d="M5649 5456 c-35 -13 -81 -30 -102 -39 l-38 -17 28 -35 c15 -19 35
-35 44 -35 8 0 43 11 77 25 100 41 96 42 258 -117 154 -152 203 -189 275 -213
42 -14 48 -20 54 -53 12 -63 32 -90 182 -236 104 -103 144 -148 141 -162 -2
-10 -23 -30 -48 -43 -25 -13 -56 -30 -69 -38 l-23 -15 38 -39 c44 -45 39 -45
161 13 62 29 87 47 99 69 29 57 14 82 -146 244 -81 83 -153 160 -159 172 -14
27 -14 70 -1 78 17 10 11 22 -27 59 -32 30 -45 36 -83 36 -67 0 -126 40 -280
189 -74 72 -153 140 -175 150 -63 31 -132 33 -206 7z"/>
<path d="M4871 5145 c-99 -41 -141 -76 -141 -118 0 -42 10 -57 152 -210 71
-77 137 -155 145 -172 14 -29 14 -35 -2 -69 l-18 -37 38 -39 c33 -34 44 -39
80 -38 72 1 111 -27 278 -198 186 -190 218 -210 327 -202 48 4 88 16 155 47
l89 42 -42 42 -42 41 -47 -18 c-104 -40 -126 -46 -143 -41 -10 3 -91 80 -181
170 -137 137 -174 168 -224 190 -90 39 -90 39 -97 89 -8 56 -30 87 -158 221
-53 55 -110 117 -128 139 -31 36 -32 39 -17 56 9 10 43 28 76 40 32 12 59 28
59 34 0 14 -52 66 -66 66 -5 0 -47 -16 -93 -35z"/>
<path d="M3990 4757 c-3 -3 -25 -7 -50 -10 -156 -18 -327 -96 -427 -194 -114
-112 -162 -235 -148 -375 9 -94 28 -155 76 -237 107 -185 312 -323 594 -399
89 -23 118 -26 270 -27 135 0 185 4 245 19 163 41 315 126 395 218 79 93 122
222 109 333 -9 79 -41 185 -60 192 -14 5 -38 -3 -135 -45 l-46 -20 15 -72 c13
-59 14 -79 3 -118 -42 -159 -182 -278 -374 -319 -80 -17 -235 -19 -312 -4
-405 79 -653 400 -512 664 116 219 472 310 767 195 41 -15 86 -35 99 -42 22
-12 33 -10 110 22 47 19 88 37 90 39 15 12 -163 101 -264 133 -105 32 -206 48
-330 49 -61 1 -113 0 -115 -2z"/>
<path d="M8220 4662 c-34 -12 -27 -29 37 -94 37 -37 64 -70 60 -74 -3 -4 -74
6 -156 20 -82 15 -160 26 -173 24 -21 -3 -19 -7 28 -53 56 -55 126 -120 192
-179 38 -35 45 -38 67 -28 14 7 25 16 25 21 0 5 -30 38 -67 74 -37 36 -64 69
-60 73 4 5 74 -4 155 -19 160 -29 192 -32 192 -18 0 11 -245 238 -270 250 -8
5 -22 6 -30 3z"/>
<path d="M7603 4364 c73 -246 103 -334 115 -334 7 0 22 5 33 11 16 8 18 17 14
43 -6 31 -4 34 32 50 21 10 57 27 81 38 31 14 52 18 75 13 51 -11 106 -10 119
3 9 9 7 13 -8 18 -10 4 -107 43 -213 86 -107 44 -208 82 -224 85 -25 5 -29 3
-24 -13z m184 -105 c24 -11 43 -25 43 -30 0 -11 -54 -39 -75 -39 -14 0 -45 54
-45 80 0 16 30 12 77 -11z"/>
<path d="M7338 4259 c-24 -13 -23 -31 6 -87 54 -108 47 -113 -75 -47 -46 24
-87 45 -91 45 -14 0 -8 -27 17 -82 14 -29 25 -61 25 -70 0 -21 -7 -19 -122 45
-77 42 -89 46 -112 36 -14 -7 -26 -15 -26 -19 0 -3 19 -16 43 -28 40 -20 107
-56 263 -143 39 -21 77 -39 83 -39 18 0 13 27 -14 80 -14 27 -25 59 -25 71 0
19 8 17 94 -30 99 -53 116 -59 116 -39 0 22 -144 317 -155 317 -5 0 -18 -4
-27 -10z"/>
<path d="M6740 3984 c-12 -13 6 -34 122 -150 75 -73 140 -134 145 -134 5 0 17
6 27 13 26 19 16 34 -122 170 -119 118 -146 133 -172 101z"/>
<path d="M6340 3803 c0 -10 79 -344 85 -361 4 -10 11 -9 35 3 27 14 30 21 28
52 l-3 36 94 42 94 43 43 -16 c38 -14 47 -14 74 -1 l31 14 -228 98 c-220 94
-253 106 -253 90z m176 -117 c28 -13 54 -28 57 -33 8 -13 -87 -58 -102 -49
-10 7 -31 69 -31 94 0 18 18 15 76 -12z"/>
<path d="M5883 3608 c-73 -34 -133 -65 -133 -71 0 -6 7 -18 16 -28 15 -16 19
-16 77 12 l62 30 121 -126 c117 -123 121 -126 147 -114 15 7 27 15 27 19 0 4
-50 60 -110 124 -61 65 -108 121 -106 125 3 4 27 18 55 30 43 21 49 27 40 42
-16 30 -54 22 -196 -43z"/>
</g>
</svg>
