<?xml version="1.0" standalone="no"?>
<!DOCTYPE svg PUBLIC "-//W3C//DTD SVG 20010904//EN"
 "http://www.w3.org/TR/2001/REC-SVG-20010904/DTD/svg10.dtd">
<svg version="1.0" xmlns="http://www.w3.org/2000/svg"
 width="500.000000pt" height="1000.000000pt" viewBox="0 0 500.000000 1000.000000"
 preserveAspectRatio="xMidYMid meet">

<g transform="translate(0.000000,1000.000000) scale(0.100000,-0.100000)"
fill="#000000" stroke="none">
<path d="M650 7540 l0 -740 480 0 480 0 0 35 0 35 -442 2 -443 3 0 665 0 665
1775 0 1775 0 3 -667 2 -668 -445 0 -445 0 0 -35 0 -35 480 0 480 0 0 740 0
740 -1850 0 -1850 0 0 -740z"/>
<path d="M1302 7934 c-110 -29 -201 -107 -250 -212 -24 -51 -27 -69 -27 -167
0 -102 2 -114 29 -168 39 -76 111 -148 183 -184 52 -25 68 -28 158 -28 88 0
107 3 157 27 89 41 172 139 202 236 7 21 5 22 -48 22 -54 0 -56 -1 -75 -37
-50 -98 -144 -150 -255 -141 -103 9 -183 65 -227 162 -28 61 -25 167 5 231 91
196 357 218 461 38 l30 -52 53 -1 c62 0 64 7 26 83 -51 102 -141 172 -252 196
-68 14 -104 13 -170 -5z"/>
<path d="M1964 7940 c-44 -18 -54 -48 -54 -155 0 -117 -13 -175 -41 -182 -31
-8 -26 -72 8 -99 26 -20 27 -24 32 -158 7 -169 12 -176 122 -176 l69 0 0 34 0
35 -52 3 -53 3 -5 125 c-4 89 -10 134 -22 155 -15 27 -15 32 0 60 12 22 17 65
20 157 l4 127 51 3 52 3 0 35 0 35 -55 2 c-30 1 -65 -2 -76 -7z"/>
<path d="M2400 7911 l0 -41 49 0 c35 0 51 -4 55 -16 3 -9 6 -68 6 -133 0 -92
3 -121 16 -140 16 -22 16 -25 0 -51 -12 -21 -16 -54 -16 -132 0 -145 -2 -148
-61 -148 l-49 0 0 -41 0 -42 67 6 c59 4 71 9 95 36 27 30 28 35 28 141 0 121
8 155 40 163 31 8 24 63 -12 99 -28 26 -28 28 -28 147 0 119 0 121 -29 153
-25 29 -35 32 -95 36 l-66 4 0 -41z"/>
<path d="M2740 7555 l0 -387 188 4 c179 4 190 5 248 32 152 69 241 242 213
416 -20 130 -89 229 -197 282 l-66 33 -193 3 -193 4 0 -387z m371 260 c69 -25
108 -62 141 -132 28 -58 30 -71 26 -141 -5 -87 -22 -128 -76 -184 -50 -53
-113 -72 -242 -72 l-105 -1 -3 273 -2 272 109 0 c71 0 123 -5 152 -15z"/>
<path d="M3512 7558 l3 -383 233 -3 232 -2 0 50 c0 27 0 53 0 56 0 3 -79 5
-175 4 l-175 -1 0 111 0 110 175 0 176 0 -3 58 -3 57 -173 0 -172 0 0 108 0
107 175 0 175 0 0 55 0 55 -235 0 -235 0 2 -382z"/>
<path d="M1770 6920 c0 -16 7 -20 35 -20 l35 0 0 -85 c0 -78 2 -85 20 -85 18
0 20 7 20 85 l0 85 35 0 c28 0 35 4 35 20 0 19 -7 20 -90 20 -83 0 -90 -1 -90
-20z"/>
<path d="M2047 6838 c-52 -97 -54 -103 -34 -106 11 -2 26 3 33 12 16 22 119
23 128 1 3 -8 16 -15 30 -15 23 0 23 3 -32 105 -32 57 -60 105 -63 105 -3 0
-31 -46 -62 -102z m73 13 c0 -5 3 -16 6 -25 5 -12 0 -16 -19 -16 -23 0 -24 2
-14 25 12 25 27 34 27 16z"/>
<path d="M2320 6835 c0 -98 1 -105 20 -105 19 0 20 7 20 105 0 98 -1 105 -20
105 -19 0 -20 -7 -20 -105z"/>
<path d="M2452 6928 c3 -7 20 -55 38 -105 18 -51 36 -93 40 -93 5 0 16 23 26
51 l19 51 23 -52 c13 -31 27 -49 32 -44 9 10 70 179 70 195 0 5 -7 9 -16 9 -9
0 -25 -22 -39 -52 -19 -45 -24 -50 -31 -33 -4 11 -14 36 -22 55 l-14 35 -19
-40 c-10 -22 -19 -46 -19 -52 0 -29 -17 -10 -31 35 -12 36 -20 48 -38 50 -17
3 -22 0 -19 -10z"/>
<path d="M2833 6928 c-13 -18 -103 -185 -103 -192 0 -12 38 -5 50 9 8 10 31
15 67 15 38 0 55 -4 59 -15 4 -8 17 -15 31 -15 14 0 23 3 21 8 -9 21 -110 202
-112 202 -2 0 -8 -6 -13 -12z m15 -116 c-27 -5 -32 2 -18 29 l13 22 13 -24
c11 -22 11 -24 -8 -27z"/>
<path d="M3057 6934 c-4 -4 -7 -52 -7 -106 0 -97 1 -99 22 -96 20 3 22 8 19
62 l-3 60 69 -64 68 -64 5 99 c5 105 2 122 -24 112 -12 -5 -16 -21 -16 -64 l0
-57 -63 62 c-35 34 -66 59 -70 56z"/>
<path d="M0 2505 l0 -2505 2500 0 2500 0 0 2505 0 2505 -2500 0 -2500 0 0
-2505z m4350 35 l0 -740 -480 0 -480 0 0 35 0 35 445 0 445 0 -2 668 -3 667
-1775 0 -1775 0 0 -665 0 -665 443 -3 442 -2 0 -35 0 -35 -480 0 -480 0 0 740
0 740 1850 0 1850 0 0 -740z m-2878 399 c111 -24 201 -94 252 -196 38 -76 36
-83 -26 -83 l-53 1 -30 52 c-81 140 -270 166 -392 54 -65 -59 -93 -124 -93
-212 1 -152 99 -261 246 -273 111 -9 205 43 255 141 19 36 21 37 75 37 53 0
55 -1 48 -22 -30 -97 -113 -195 -202 -236 -50 -24 -69 -27 -157 -27 -90 0
-106 3 -158 28 -72 36 -144 108 -183 184 -27 54 -29 66 -29 168 0 98 3 116 27
167 49 105 140 183 250 212 66 18 102 19 170 5z m623 -29 l0 -35 -52 -3 -51
-3 -4 -127 c-3 -93 -8 -135 -20 -157 -15 -27 -15 -32 0 -60 12 -21 18 -66 22
-155 l5 -125 53 -3 52 -3 0 -35 0 -34 -69 0 c-110 0 -115 7 -122 176 -5 134
-6 138 -32 158 -34 27 -39 91 -8 99 28 7 41 65 41 185 0 101 1 104 30 133 27
28 34 30 92 27 l63 -3 0 -35z m466 2 c29 -32 29 -34 29 -153 l0 -121 30 -28
c37 -35 42 -89 9 -97 -31 -8 -39 -43 -39 -163 0 -106 -1 -111 -28 -141 -24
-27 -36 -32 -95 -36 l-67 -6 0 42 0 41 49 0 c59 0 61 3 61 148 0 78 4 111 16
132 16 26 16 29 0 51 -13 19 -16 48 -16 140 0 65 -3 124 -6 133 -4 12 -20 16
-55 16 l-49 0 0 41 0 41 66 -4 c60 -4 70 -7 95 -36z m631 -10 c277 -136 266
-570 -16 -698 -58 -27 -69 -28 -248 -32 l-188 -4 0 387 0 387 193 -4 193 -3
66 -33z m788 -17 l0 -55 -175 0 -175 0 0 -107 0 -108 172 0 173 0 3 -57 3 -58
-176 0 -175 0 0 -110 0 -111 175 1 c96 1 175 -1 175 -4 0 -3 0 -29 0 -56 l0
-50 -232 2 -233 3 -3 383 -2 382 235 0 235 0 0 -55z m-2030 -965 c0 -16 -7
-20 -35 -20 l-35 0 0 -85 c0 -78 -2 -85 -20 -85 -18 0 -20 7 -20 85 l0 85 -35
0 c-28 0 -35 4 -35 20 0 19 7 20 90 20 83 0 90 -1 90 -20z m222 -85 c55 -102
55 -105 32 -105 -14 0 -27 7 -30 15 -9 22 -112 21 -128 -1 -7 -9 -22 -14 -33
-12 -20 3 -18 9 34 106 31 56 59 102 62 102 3 0 31 -48 63 -105z m188 0 c0
-98 -1 -105 -20 -105 -19 0 -20 7 -20 105 0 98 1 105 20 105 19 0 20 -7 20
-105z m149 53 c14 -45 31 -64 31 -35 0 6 9 30 19 52 l19 40 14 -35 c8 -19 18
-44 22 -55 7 -17 12 -12 31 33 14 30 30 52 39 52 9 0 16 -4 16 -9 0 -16 -61
-185 -70 -195 -5 -5 -19 13 -32 44 l-23 52 -19 -51 c-10 -28 -21 -51 -26 -51
-4 0 -22 42 -40 93 -18 50 -35 98 -38 105 -3 10 2 13 19 10 18 -2 26 -14 38
-50z m393 -45 c29 -54 55 -101 56 -105 2 -5 -7 -8 -21 -8 -14 0 -27 7 -31 15
-4 11 -21 15 -59 15 -36 0 -59 -5 -67 -15 -12 -14 -50 -21 -50 -9 0 15 107
204 116 204 1 0 27 -44 56 -97z m225 35 l63 -62 0 62 c0 59 1 63 21 60 21 -3
22 -8 20 -103 -1 -55 -4 -101 -5 -103 -2 -2 -31 22 -64 52 -33 31 -63 56 -67
56 -3 0 -5 -24 -4 -52 3 -48 1 -53 -19 -56 -22 -3 -22 -1 -22 102 0 58 3 106
7 106 4 0 36 -28 70 -62z"/>
<path d="M2852 2558 l3 -273 105 1 c129 0 192 19 242 72 54 56 71 97 76 184 4
70 2 83 -26 141 -52 112 -122 147 -293 147 l-109 0 2 -272z"/>
<path d="M2093 1835 c-10 -23 -9 -25 14 -25 19 0 24 4 19 16 -3 9 -6 20 -6 25
0 18 -15 9 -27 -16z"/>
<path d="M2832 1839 c-16 -25 -11 -32 16 -27 18 3 19 6 9 25 l-12 23 -13 -21z"/>
</g>
</svg>
