<?xml version="1.0" standalone="no"?>
<!DOCTYPE svg PUBLIC "-//W3C//DTD SVG 20010904//EN"
 "http://www.w3.org/TR/2001/REC-SVG-20010904/DTD/svg10.dtd">
<svg version="1.0" xmlns="http://www.w3.org/2000/svg"
 width="1280.000000pt" height="536.000000pt" viewBox="0 0 1280.000000 536.000000"
 preserveAspectRatio="xMidYMid meet">

<g transform="translate(0.000000,536.000000) scale(0.100000,-0.100000)"
fill="#000000" stroke="none">
<path d="M250 2800 l0 -2300 1540 0 1540 0 0 -130 0 -130 -1665 0 -1665 0 0
-120 0 -120 2050 0 2050 0 0 285 0 285 -120 0 -120 0 0 80 0 80 315 0 315 0 0
-80 0 -80 -115 0 -115 0 0 -285 0 -285 185 0 c108 0 185 4 185 9 0 10 396 741
409 753 4 4 101 -165 216 -377 l210 -384 148 -1 147 0 0 365 0 365 80 0 80 0
0 -365 0 -365 281 0 c154 0 278 3 276 7 -3 5 -64 161 -135 348 -72 187 -133
348 -137 357 -6 16 1 18 77 18 l83 0 69 -180 c38 -99 70 -179 71 -178 1 2 33
83 70 181 89 233 87 233 175 0 36 -95 67 -173 70 -173 3 0 35 78 71 173 l66
172 82 3 c44 2 81 -1 81 -5 0 -5 -61 -167 -135 -361 -74 -194 -135 -355 -135
-357 0 -3 71 -5 158 -5 l157 1 200 370 c110 204 205 378 211 386 8 12 53 -64
220 -370 l209 -386 153 -1 152 0 0 365 c0 365 0 365 21 365 14 0 94 -70 233
-202 l211 -203 3 203 2 202 80 0 80 0 0 -365 0 -365 1930 0 1930 0 0 120 0
120 -1665 0 -1665 0 0 130 0 130 1540 0 1540 0 0 2300 0 2300 -6150 0 -6150 0
0 -2300z m2585 1395 c464 -96 805 -405 955 -866 17 -50 30 -93 30 -95 0 -2
-89 -4 -197 -4 l-198 0 -28 68 c-71 176 -231 349 -402 435 -77 38 -200 74
-305 87 -483 62 -928 -277 -1031 -785 -17 -86 -14 -275 6 -369 61 -288 251
-536 510 -666 149 -75 229 -93 405 -93 169 0 253 18 389 83 207 99 348 246
446 464 l39 86 193 0 193 0 -6 -28 c-30 -124 -118 -320 -200 -444 -68 -104
-249 -283 -358 -353 -322 -210 -746 -263 -1112 -140 -262 88 -496 265 -652
493 -299 436 -333 979 -91 1441 206 394 572 649 1009 705 73 9 327 -3 405 -19z
m2165 -110 l0 -135 -163 0 c-154 0 -165 -1 -183 -21 -18 -20 -19 -47 -25 -418
-5 -332 -9 -406 -24 -456 -20 -71 -45 -122 -80 -164 l-27 -31 27 -31 c35 -42
60 -93 80 -164 15 -50 19 -125 24 -452 5 -358 8 -394 24 -410 15 -16 40 -18
182 -21 l165 -3 0 -136 0 -135 -207 4 c-171 4 -217 8 -258 23 -69 26 -145 104
-175 180 -23 58 -24 73 -30 445 -6 336 -9 391 -25 433 -24 65 -74 115 -125
123 l-40 7 0 138 c0 124 2 139 17 139 33 0 98 41 121 75 46 72 52 125 52 475
0 179 4 351 10 383 23 145 110 248 235 278 17 4 119 7 228 8 l197 1 0 -135z
m1518 100 c76 -34 132 -94 164 -174 21 -53 22 -74 28 -441 6 -369 7 -387 28
-442 27 -66 76 -114 127 -124 l35 -6 0 -139 0 -139 -24 0 c-51 0 -122 -72
-147 -149 -8 -23 -15 -167 -19 -401 -5 -317 -8 -372 -24 -415 -35 -95 -85
-149 -181 -195 -22 -11 -86 -15 -247 -18 l-218 -4 0 136 0 136 159 0 c141 0
161 2 182 19 l24 19 6 369 c4 248 10 386 19 423 17 73 51 148 84 188 l28 32
-28 33 c-33 39 -67 114 -84 187 -9 38 -15 177 -19 442 -6 354 -8 389 -24 405
-15 16 -41 18 -182 21 l-165 4 0 135 0 135 208 -4 c203 -4 208 -4 270 -33z
m1907 0 c405 -65 721 -290 909 -645 109 -208 157 -415 157 -682 0 -179 -19
-302 -71 -459 -64 -195 -151 -344 -281 -483 -167 -179 -370 -291 -644 -358
-86 -20 -116 -21 -682 -25 l-593 -4 0 1335 0 1336 558 0 c441 0 576 -3 647
-15z m3115 -180 l0 -195 -620 0 -620 0 0 -370 0 -370 605 0 605 0 0 -200 0
-200 -605 0 -605 0 0 -375 0 -375 620 0 620 0 0 -195 0 -195 -820 0 -820 0 0
1335 0 1335 820 0 820 0 0 -195z"/>
<path d="M7610 2865 l0 -947 353 5 c366 5 421 11 547 55 279 98 477 321 562
632 31 114 33 385 4 495 -46 175 -126 323 -236 435 -119 122 -240 192 -408
238 -94 25 -107 26 -459 30 l-363 4 0 -947z"/>
<path d="M4996 364 c-26 -48 -45 -88 -43 -91 3 -2 45 -2 95 -1 l90 3 -47 87
-48 88 -47 -86z"/>
<path d="M7536 360 l-47 -90 96 0 97 0 -48 88 c-26 48 -48 88 -48 89 -1 1 -23
-38 -50 -87z"/>
<path d="M8460 200 l0 -200 213 0 212 1 -195 189 c-107 105 -203 195 -212 200
-17 10 -18 -2 -18 -190z"/>
<path d="M6654 324 c-4 -10 -33 -86 -65 -169 l-57 -150 125 -3 c69 -1 128 0
131 2 4 4 -114 324 -124 335 -2 2 -7 -5 -10 -15z"/>
<path d="M4831 60 l-32 -60 244 0 244 0 -31 60 -31 60 -181 0 -181 0 -32 -60z"/>
<path d="M7372 60 l-33 -60 246 0 246 0 -33 60 -33 60 -180 0 -180 0 -33 -60z"/>
</g>
</svg>
