<?xml version="1.0" standalone="no"?>
<!DOCTYPE svg PUBLIC "-//W3C//DTD SVG 20010904//EN"
 "http://www.w3.org/TR/2001/REC-SVG-20010904/DTD/svg10.dtd">
<svg version="1.0" xmlns="http://www.w3.org/2000/svg"
 width="1280.000000pt" height="536.000000pt" viewBox="0 0 1280.000000 536.000000"
 preserveAspectRatio="xMidYMid meet">

<g transform="translate(0.000000,536.000000) scale(0.100000,-0.100000)"
fill="#000000" stroke="none">
<path d="M273 5102 l-23 -3 0 -2300 0 -2299 1540 0 1540 0 0 -125 0 -125
-1665 0 -1665 0 0 -125 0 -125 2055 0 2055 0 0 290 0 290 -120 0 -120 0 0 70
0 70 310 0 310 0 0 -70 0 -70 -120 0 -120 0 0 -290 0 -290 188 0 188 0 199
366 c110 202 205 373 210 381 8 10 53 -65 187 -309 97 -178 189 -349 205 -380
l28 -57 158 0 157 -1 0 360 0 360 75 0 76 0 -3 -360 -3 -360 283 0 c155 0 282
2 282 5 0 2 -61 162 -135 355 -74 194 -135 353 -135 356 0 2 35 4 78 4 l77 0
64 -169 c35 -93 67 -174 70 -180 4 -6 38 71 76 170 89 234 86 234 174 2 36
-95 69 -173 72 -173 3 0 36 78 71 172 l66 173 81 3 80 3 -16 -38 c-8 -21 -67
-173 -130 -338 -63 -165 -119 -310 -124 -322 l-9 -23 170 0 c94 0 169 3 168 8
-3 7 401 752 407 752 2 0 39 -66 83 -147 44 -82 136 -250 205 -375 68 -125
122 -230 119 -233 -3 -3 67 -5 156 -5 l162 0 0 360 0 360 23 0 c15 -1 90 -66
237 -205 l215 -205 3 205 2 205 70 0 70 0 0 -360 0 -360 1935 0 1935 0 0 125
0 125 -1665 0 -1665 0 0 125 0 125 1540 0 1540 0 0 2300 c0 2184 -1 2300 -17
2300 -7824 4 -12243 4 -12260 2z m2457 -896 c300 -38 538 -152 740 -355 105
-105 180 -210 241 -336 39 -81 99 -246 99 -272 0 -11 -37 -13 -191 -11 l-190
3 -29 67 c-60 144 -180 292 -306 379 -65 45 -183 97 -272 121 -56 14 -117 21
-222 24 -129 3 -156 1 -239 -21 -337 -88 -597 -351 -689 -695 -21 -80 -25
-118 -25 -240 -1 -165 13 -242 66 -374 120 -294 381 -517 676 -578 134 -28
318 -21 445 17 268 79 444 231 573 491 l54 112 185 1 c161 0 184 -2 184 -15 0
-31 -62 -200 -106 -291 -126 -256 -361 -490 -604 -601 -88 -40 -239 -87 -330
-103 -97 -17 -334 -17 -430 0 -404 71 -748 327 -937 697 -239 466 -206 995 88
1424 216 316 563 524 932 559 130 12 170 12 287 -3z m2268 -101 c4 -171 20
-157 -170 -154 -157 3 -161 3 -179 -20 -11 -13 -19 -33 -19 -45 3 -183 -11
-752 -18 -786 -19 -81 -52 -156 -88 -198 l-36 -42 36 -42 c37 -42 70 -117 88
-198 8 -36 20 -524 18 -751 0 -81 4 -83 197 -89 l168 -5 0 -130 0 -130 -190 0
c-150 1 -202 4 -246 18 -74 22 -148 89 -186 165 l-28 57 -6 380 c-5 353 -7
385 -27 446 -26 80 -83 139 -132 139 l-30 0 0 140 c0 134 1 140 20 140 56 0
114 58 145 145 15 43 19 102 24 440 6 378 7 392 29 439 33 72 66 112 119 143
78 45 122 52 323 50 l185 -2 3 -110z m1527 73 c64 -34 118 -90 147 -153 22
-48 23 -62 29 -425 4 -233 10 -394 18 -425 23 -98 74 -160 142 -174 l34 -7 0
-134 0 -134 -40 -8 c-46 -10 -79 -38 -107 -91 -37 -74 -46 -162 -47 -490 -2
-349 -7 -388 -67 -469 -76 -105 -156 -130 -410 -126 l-179 3 -3 110 c-4 170
-21 155 173 155 l165 0 17 27 c16 24 19 66 24 408 5 328 8 388 23 435 24 72
40 102 77 145 l31 35 -31 35 c-42 48 -59 84 -82 172 -17 68 -19 112 -19 432 0
362 -5 422 -38 437 -9 5 -89 11 -177 14 l-160 5 -3 128 -3 128 218 -3 c214 -3
219 -3 268 -30z m1875 7 c366 -55 663 -238 856 -526 149 -223 220 -453 231
-744 14 -392 -112 -743 -359 -1000 -103 -108 -186 -171 -308 -234 -112 -58
-216 -95 -350 -123 -88 -19 -137 -21 -672 -25 l-578 -4 0 1335 0 1336 543 0
c421 0 563 -3 637 -15z m3130 -180 l0 -195 -615 0 -615 0 0 -372 0 -373 602 0
603 0 0 -195 0 -195 -602 -3 -603 -2 0 -375 0 -375 620 0 621 0 -3 -192 -3
-193 -815 0 -815 0 -3 1333 -2 1332 815 0 815 0 0 -195z"/>
<path d="M7610 2864 l0 -946 368 5 c418 5 457 10 627 91 397 189 593 678 459
1144 -82 285 -279 502 -542 596 -135 48 -215 56 -578 56 l-334 0 0 -946z"/>
<path d="M7533 364 l-51 -94 99 0 c54 0 99 3 99 8 0 4 -22 46 -48 94 l-47 86
-52 -94z"/>
<path d="M5033 438 c-5 -7 -29 -48 -52 -90 l-42 -78 101 0 c55 0 100 2 100 5
0 7 -91 175 -95 175 -1 0 -7 -6 -12 -12z"/>
<path d="M8460 384 c0 -16 -1 -109 -3 -207 l-2 -177 220 0 220 1 -140 134
c-77 74 -175 167 -217 206 -76 69 -78 70 -78 43z"/>
<path d="M6651 329 c-5 -13 -33 -85 -61 -159 -29 -74 -56 -143 -61 -152 -9
-17 0 -18 131 -18 l140 0 -24 63 c-80 210 -108 282 -112 286 -2 2 -8 -7 -13
-20z"/>
<path d="M7405 115 c-7 -5 -22 -28 -35 -50 -13 -22 -30 -46 -38 -52 -13 -11
35 -13 246 -13 l261 0 -34 58 -35 57 -176 5 c-111 3 -182 1 -189 -5z"/>
<path d="M4847 98 c-8 -13 -24 -40 -35 -60 l-21 -38 249 0 c138 0 250 2 250 5
0 3 -14 30 -31 60 l-31 55 -184 0 c-180 0 -184 0 -197 -22z"/>
</g>
</svg>
