<?xml version="1.0" standalone="no"?>
<!DOCTYPE svg PUBLIC "-//W3C//DTD SVG 20010904//EN"
 "http://www.w3.org/TR/2001/REC-SVG-20010904/DTD/svg10.dtd">
<svg version="1.0" xmlns="http://www.w3.org/2000/svg"
 width="1280.000000pt" height="536.000000pt" viewBox="0 0 1280.000000 536.000000"
 preserveAspectRatio="xMidYMid meet">

<g transform="translate(0.000000,536.000000) scale(0.100000,-0.100000)"
fill="#000000" stroke="none">
<path d="M0 2805 l0 -2555 1665 0 1665 0 0 125 0 125 -1540 0 -1540 0 0 2300
c0 2293 0 2300 20 2300 11 0 2769 0 6130 0 3361 0 6119 0 6130 0 20 0 20 -7
20 -2300 l0 -2300 -1540 0 -1540 0 0 -125 0 -125 1665 0 1665 0 0 2555 0 2555
-6400 0 -6400 0 0 -2555z"/>
<path d="M2443 4209 c-369 -35 -716 -243 -932 -559 -294 -429 -327 -958 -88
-1424 189 -370 535 -627 937 -697 97 -17 334 -17 430 0 91 16 242 63 330 103
243 111 478 345 604 601 44 91 106 260 106 291 0 13 -23 15 -184 15 l-185 -1
-54 -112 c-129 -260 -305 -412 -573 -491 -127 -38 -311 -45 -445 -17 -295 61
-556 284 -676 578 -53 132 -67 209 -66 374 0 122 4 160 25 240 92 344 352 607
689 695 83 22 110 24 239 21 105 -3 166 -10 222 -24 89 -24 207 -76 272 -121
126 -87 246 -235 306 -379 l29 -67 190 -3 c154 -2 191 0 191 11 0 26 -60 191
-99 272 -61 126 -136 231 -241 336 -202 203 -440 317 -740 355 -117 15 -157
15 -287 3z"/>
<path d="M4579 4206 c-101 -27 -166 -82 -211 -182 -22 -47 -23 -61 -29 -439
-5 -338 -9 -397 -24 -440 -31 -87 -89 -145 -145 -145 -19 0 -20 -6 -20 -140
l0 -140 30 0 c49 0 106 -59 132 -139 20 -61 22 -93 27 -446 l6 -380 28 -57
c38 -76 112 -143 186 -165 44 -14 96 -17 246 -18 l190 0 0 130 0 130 -168 5
c-193 6 -197 8 -197 89 2 227 -10 715 -18 751 -18 81 -51 156 -88 198 l-36 42
36 42 c36 42 69 117 88 198 7 34 21 603 18 786 0 12 8 32 19 45 18 23 22 23
179 20 l161 -2 6 33 c3 18 5 78 3 133 l-3 100 -185 2 c-122 1 -201 -2 -231
-11z"/>
<path d="M6042 4083 l3 -128 160 -5 c88 -3 168 -9 177 -14 33 -15 38 -75 38
-437 0 -320 2 -364 19 -432 23 -88 40 -124 82 -172 l31 -35 -31 -35 c-37 -43
-53 -73 -77 -145 -15 -47 -18 -107 -23 -435 -5 -342 -8 -384 -24 -408 l-17
-27 -165 0 -164 0 -6 -32 c-3 -18 -5 -78 -3 -133 l3 -100 179 -3 c254 -4 334
21 410 126 60 81 65 120 67 469 1 328 10 416 47 490 28 53 61 81 107 91 l40 8
0 134 0 134 -34 7 c-68 14 -119 76 -142 174 -8 31 -14 192 -18 425 -6 363 -7
377 -29 425 -29 63 -83 119 -147 153 -49 27 -54 27 -268 30 l-218 3 3 -128z"/>
<path d="M7220 2864 l0 -1335 578 4 c632 4 651 6 847 72 445 149 756 541 831
1047 20 135 15 366 -11 496 -52 268 -181 516 -357 689 -163 161 -305 244 -524
308 -174 51 -235 55 -821 55 l-543 0 0 -1336z m1143 931 c345 -60 602 -293
701 -637 134 -466 -62 -955 -459 -1144 -170 -81 -209 -86 -627 -91 l-368 -5 0
946 0 946 334 0 c250 0 355 -4 419 -15z"/>
<path d="M9902 2868 l3 -1333 815 0 815 0 3 193 3 192 -621 0 -620 0 0 375 0
375 603 2 602 3 0 195 0 195 -602 0 -603 0 0 373 0 372 615 0 615 0 0 195 0
195 -815 0 -815 0 2 -1332z"/>
<path d="M5007 698 c-91 -164 -377 -691 -377 -695 0 -2 37 -3 82 -1 l82 3 31
55 31 55 186 3 186 2 33 -59 33 -60 78 1 c45 0 78 4 78 10 0 9 -344 643 -391
721 l-17 29 -35 -64z m87 -333 c25 -47 46 -87 46 -90 0 -3 -45 -5 -100 -5
l-101 0 42 78 c41 74 58 102 64 102 2 0 24 -38 49 -85z"/>
<path d="M7377 385 c-112 -206 -202 -377 -199 -380 11 -11 139 -5 154 8 8 6
25 30 38 52 13 22 28 45 35 50 7 6 78 8 189 5 l176 -5 33 -55 33 -55 75 -1
c41 -1 77 0 80 2 4 2 -49 106 -118 231 -69 126 -161 294 -205 376 -44 81 -81
147 -83 147 -2 0 -95 -169 -208 -375z m303 -107 c0 -5 -45 -8 -99 -8 l-99 0
51 94 52 94 47 -86 c26 -48 48 -90 48 -94z"/>
<path d="M3870 650 l0 -70 120 0 120 0 0 -290 0 -290 70 0 70 0 0 290 0 290
120 0 120 0 0 70 0 70 -310 0 -310 0 0 -70z"/>
<path d="M5770 360 l0 -360 73 2 72 3 3 358 3 357 -76 0 -75 0 0 -360z"/>
<path d="M6214 703 c4 -10 66 -172 138 -360 112 -292 134 -341 150 -340 24 2
24 1 93 182 32 83 61 153 64 158 4 4 37 -70 73 -165 58 -152 69 -173 88 -173
25 0 11 -32 183 418 l114 298 -79 -3 -80 -3 -66 -173 c-35 -94 -68 -172 -71
-172 -3 0 -36 78 -72 173 -88 232 -85 232 -174 -2 -38 -99 -72 -176 -76 -170
-3 6 -35 87 -70 180 l-64 169 -79 0 c-70 0 -77 -2 -72 -17z"/>
<path d="M8310 360 l0 -361 73 3 72 3 2 199 c2 109 4 200 6 202 2 2 100 -88
218 -201 118 -112 222 -204 232 -205 16 0 17 24 17 360 l0 360 -70 0 -70 0 -2
-205 -3 -205 -215 205 c-147 139 -222 204 -237 205 l-23 0 0 -360z"/>
</g>
</svg>
