<?xml version="1.0" encoding="utf-8"?>
<!-- Generator: Adobe Illustrator 16.0.3, SVG Export Plug-In . SVG Version: 6.00 Build 0)  -->
<!DOCTYPE svg PUBLIC "-//W3C//DTD SVG 1.1//EN" "http://www.w3.org/Graphics/SVG/1.1/DTD/svg11.dtd">
<svg version="1.1" id="Layer_1" xmlns="http://www.w3.org/2000/svg" xmlns:xlink="http://www.w3.org/1999/xlink" x="0px" y="0px"
	 width="792px" height="792px" viewBox="0 0 792 792" enable-background="new 0 0 792 792" xml:space="preserve">
<g>
	<path d="M270.468,494.469h30.948v7.148h-11.904v28.568h-7.14v-28.568h-11.904V494.469z"/>
	<path d="M338.33,524.235h-18.377l-3.24,5.95h-8.141l20.571-37.662l20.616,37.662h-8.141L338.33,524.235z M334.426,517.096
		l-5.283-9.713l-5.286,9.713H334.426z"/>
	<path d="M372.631,530.186h-7.14v-35.717h7.14V530.186z"/>
	<path d="M403.253,530.186h-2.139l-13.713-35.717h7.667l7.092,18.574l7.14-18.574h1.624l7.092,18.574l7.14-18.574h7.622
		l-13.668,35.717h-2.139l-6.852-17.851L403.253,530.186z"/>
	<path d="M465.406,524.235h-18.381l-3.232,5.95h-8.145l20.567-37.662l20.624,37.662h-8.145L465.406,524.235z M461.498,517.096
		l-5.282-9.713l-5.282,9.713H461.498z"/>
	<path d="M492.566,494.469h1.906l21.902,20.857v-20.857h7.14v35.717h-1.954l-21.854-20.857v20.857h-7.141V494.469z"/>
</g>
<g>
	<g>
		<path d="M159.328,339.649c11.627-12.017,28.029-19.836,46.145-19.836c30.514,0,54.547,19.072,62.177,49.204h-19.072
			c-7.06-20.025-23.454-30.132-43.105-30.132c-12.776,0-24.411,5.532-32.797,14.304c-8.395,8.772-13.733,20.596-13.733,34.329
			c0,13.343,5.339,25.171,13.733,33.943c8.386,8.78,20.021,14.304,32.797,14.304c20.222,0,37.38-11.635,44.247-31.849h18.879
			c-7.622,30.329-32.033,50.921-63.126,50.921c-18.115,0-34.518-7.631-46.145-19.836c-11.449-12.205-19.072-28.986-19.072-47.483
			C140.256,368.636,147.879,351.855,159.328,339.649z"/>
		<path d="M485.885,320.577c43.677,0,65.611,33.376,65.611,66.749c0,33.38-21.935,66.555-65.611,66.555h-47.864V320.577H485.885z
			 M485.885,434.624c30.9,0,46.539-23.647,46.539-47.298c0-23.647-15.639-47.487-46.539-47.487h-28.6v94.786H485.885z"/>
		<path d="M591.746,434.624h61.984v19.257h-81.434V320.577h81.241v19.261h-61.792v37.573h60.457v19.45h-60.457V434.624z"/>
	</g>
	<g>
		<path d="M326.724,332.698h-11.932c-4.286-0.148-6.65,0-6.65,5.616v27.953c0,6.802-0.739,15.968-6.955,21.295
			c6.215,5.174,6.955,14.489,6.955,21.146v27.209c0,5.773,2.364,5.918,6.65,5.773h11.932v13.01h-15.631
			c-11.08,0-17.15-7.253-17.15-17.891v-25.439c0-8.58-1.922-17.151-9.464-17.151v-13.459c7.542,0,9.464-8.431,9.464-17.154v-25.879
			c0-10.798,6.07-18.047,17.15-18.047h15.631V332.698z"/>
	</g>
	<g>
		<path d="M379.309,319.979h15.775c10.943,0,17.006,7.248,17.006,18.047v25.581c0,8.724,2.066,17.154,9.616,17.154v13.459
			c-7.55,0-9.616,8.571-9.616,17.151v24.105c0,10.646-6.063,17.89-17.006,17.89h-15.775v-13.01h11.932
			c4.286,0.146,6.65,0,6.65-5.772v-25.875c0-6.657,0.739-15.972,6.954-21.146c-6.215-5.327-6.954-14.493-6.954-21.295v-27.655
			c0-5.616-2.364-5.769-6.65-5.616h-11.932V319.979z"/>
	</g>
</g>
<g>
	<polygon points="716.993,518.141 550.684,518.141 550.684,505.79 704.644,505.79 704.644,275.257 89.344,275.257 89.344,505.79 
		243.303,505.79 243.303,518.141 76.994,518.141 76.994,262.907 716.993,262.907 	"/>
</g>
</svg>
