<?xml version="1.0" standalone="no"?>
<!DOCTYPE svg PUBLIC "-//W3C//DTD SVG 20010904//EN"
 "http://www.w3.org/TR/2001/REC-SVG-20010904/DTD/svg10.dtd">
<svg version="1.0" xmlns="http://www.w3.org/2000/svg"
 width="600.000000pt" height="600.000000pt" viewBox="0 0 600.000000 600.000000"
 preserveAspectRatio="xMidYMid meet">

<g transform="translate(0.000000,600.000000) scale(0.100000,-0.100000)"
fill="#000000" stroke="none">
<path d="M8 5905 c3 -80 5 -84 22 -75 11 6 34 25 52 44 18 18 43 38 56 45 12
6 22 18 22 26 0 8 4 15 9 15 5 0 11 7 15 15 4 13 -9 15 -87 15 l-92 0 3 -85z
m72 45 c0 -5 -5 -10 -11 -10 -5 0 -7 5 -4 10 3 6 8 10 11 10 2 0 4 -4 4 -10z"/>
<path d="M1150 3030 l0 -740 480 0 480 0 0 38 0 37 -223 0 c-122 1 -323 2
-446 3 l-224 2 4 660 4 660 1778 0 1777 0 0 -658 0 -659 -317 -6 c-174 -4
-374 -7 -445 -7 l-128 0 0 -35 0 -35 480 0 480 0 0 740 0 740 -1850 0 -1850 0
0 -740z"/>
<path d="M1799 3427 c-101 -29 -192 -106 -246 -209 -26 -49 -28 -61 -28 -168
0 -106 2 -120 28 -173 117 -237 419 -296 599 -116 43 43 86 112 102 167 7 21
5 22 -48 22 -53 0 -56 -2 -72 -32 -80 -159 -296 -197 -418 -74 -64 64 -81 107
-81 206 0 74 3 91 27 131 55 94 134 141 233 141 107 1 194 -53 236 -145 11
-24 17 -27 66 -27 63 0 65 6 28 83 -55 116 -174 195 -307 203 -43 2 -92 -1
-119 -9z"/>
<path d="M2438 3411 l-32 -29 -6 -133 c-5 -137 -10 -159 -36 -159 -10 0 -14
-12 -14 -45 0 -33 4 -45 15 -45 26 0 35 -36 35 -137 0 -114 12 -168 43 -187
12 -8 51 -16 87 -17 l65 -3 3 37 3 37 -43 0 c-24 0 -48 4 -54 8 -8 4 -13 53
-15 132 -3 94 -8 132 -20 151 -15 22 -15 26 0 49 12 18 17 55 19 157 l4 133
54 0 54 0 0 40 0 40 -65 0 c-57 0 -68 -3 -97 -29z"/>
<path d="M2900 3400 l0 -40 49 0 49 0 4 -127 c3 -91 9 -137 20 -158 15 -28 15
-33 0 -60 -10 -20 -17 -70 -21 -150 l-6 -120 -47 -3 -48 -3 0 -40 0 -39 49 0
c119 0 141 30 141 190 0 111 0 112 30 140 19 18 30 38 30 55 0 17 -11 37 -30
55 -30 28 -30 28 -30 144 0 68 -5 126 -12 141 -17 37 -57 55 -123 55 l-55 0 0
-40z"/>
<path d="M4243 3432 l-233 -2 0 -385 0 -385 240 0 241 0 -3 58 -3 57 -177 3
-178 2 0 105 0 105 175 0 175 0 0 60 0 60 -175 0 -175 0 0 105 0 105 178 2
177 3 3 49 c2 27 0 52 -5 55 -4 3 -113 5 -240 3z"/>
<path d="M3240 3044 l0 -386 188 4 c223 6 255 14 342 95 133 123 164 309 79
480 -37 77 -106 139 -186 170 -52 20 -77 22 -240 22 l-183 1 0 -386z m355 265
c107 -30 175 -121 183 -243 6 -96 -22 -170 -83 -224 -58 -51 -100 -62 -234
-62 l-111 0 0 270 0 270 103 0 c56 0 120 -5 142 -11z"/>
<path d="M2270 2411 c0 -15 8 -21 33 -23 l32 -3 3 -82 c2 -74 5 -83 22 -83 17
0 20 9 22 83 l3 82 33 3 c24 2 32 8 32 23 0 17 -8 19 -90 19 -82 0 -90 -2 -90
-19z"/>
<path d="M2547 2328 c-53 -97 -55 -103 -35 -106 12 -2 27 3 34 12 8 11 27 16
64 16 37 0 56 -5 64 -16 7 -9 21 -14 33 -12 18 3 16 11 -36 105 -31 57 -59
103 -62 103 -3 0 -31 -46 -62 -102z m77 -4 c9 -23 8 -24 -19 -24 -23 0 -24 2
-13 20 15 24 24 25 32 4z"/>
<path d="M2820 2325 c0 -98 1 -105 20 -105 19 0 20 7 20 105 0 98 -1 105 -20
105 -19 0 -20 -7 -20 -105z"/>
<path d="M2950 2424 c0 -17 74 -204 81 -204 4 0 15 20 24 45 10 24 21 43 25
40 3 -2 12 -22 20 -44 7 -23 17 -41 22 -41 9 0 13 9 53 115 12 33 26 68 30 78
5 13 2 17 -13 17 -24 0 -36 -14 -52 -63 -14 -43 -22 -40 -40 15 -17 55 -27 55
-47 -2 -10 -27 -20 -50 -24 -50 -3 0 -12 21 -20 48 -11 35 -20 48 -37 50 -12
2 -22 0 -22 -4z"/>
<path d="M3333 2418 c-14 -18 -103 -184 -103 -192 0 -13 48 -5 54 9 4 11 21
15 61 15 40 0 57 -4 61 -15 5 -13 54 -23 54 -11 0 2 -20 40 -45 85 -25 45 -45
85 -45 90 0 5 -6 14 -14 20 -10 8 -16 8 -23 -1z m15 -116 c-27 -5 -32 2 -16
27 l13 21 12 -23 c10 -19 9 -22 -9 -25z"/>
<path d="M3550 2325 l0 -105 26 0 c25 0 26 2 22 55 -1 30 -1 55 2 55 3 0 30
-25 60 -55 30 -30 60 -55 68 -55 10 0 12 23 10 103 -3 97 -4 102 -25 105 -22
3 -23 0 -23 -60 l0 -62 -63 62 c-34 34 -66 62 -70 62 -4 0 -7 -47 -7 -105z"/>
<path d="M6 1198 c-3 -13 -6 -287 -6 -611 l0 -587 1044 2 c574 2 1047 5 1050
8 13 14 -50 199 -75 220 -14 12 -60 92 -48 85 8 -5 10 -4 5 3 -4 7 -14 12 -22
12 -8 0 -13 4 -9 9 7 12 -34 51 -54 52 -11 0 -12 2 -3 6 8 3 4 11 -13 25 -14
11 -23 24 -19 29 3 5 0 8 -8 7 -7 -2 -12 2 -11 9 2 7 -4 10 -12 7 -8 -4 -15
-1 -15 5 0 6 -7 11 -15 11 -8 0 -15 -4 -15 -8 0 -5 -7 -9 -15 -9 -8 0 -12 4
-9 8 7 12 -32 30 -53 23 -15 -5 -15 -4 -3 4 12 9 9 13 -13 21 -15 6 -40 20
-56 32 -18 13 -34 18 -43 13 -11 -6 -11 -5 0 8 10 13 10 16 0 15 -31 -1 -51 4
-44 10 3 4 -21 20 -54 35 -33 16 -60 32 -60 37 0 5 -6 9 -12 8 -33 -1 -48 4
-48 17 0 18 -87 49 -93 33 -2 -7 -21 -4 -58 10 -30 12 -72 27 -94 33 -22 7
-44 16 -50 21 -5 5 -15 9 -21 9 -7 0 -25 5 -41 12 -15 6 -34 10 -42 9 -8 -1
-10 2 -5 10 4 8 3 10 -4 5 -6 -4 -21 -2 -33 4 -12 7 -35 13 -53 14 -65 6 -63
5 -46 16 12 8 11 10 -7 10 -14 0 -23 6 -23 15 0 18 -47 38 -73 31 -10 -2 -33
1 -50 9 -31 13 -31 13 -7 18 24 4 24 4 -2 6 -16 0 -28 6 -28 11 0 7 -6 8 -17
2 -16 -9 -42 -2 -118 33 -23 11 -33 11 -44 2 -9 -7 -12 -8 -8 -1 8 14 -20 54
-39 54 -8 0 -14 4 -14 9 0 5 -25 17 -55 26 -34 10 -53 20 -49 26 4 7 0 9 -13
5 -12 -4 -37 5 -68 25 -50 32 -78 40 -152 42 -23 1 -39 5 -37 9 3 5 1 8 -4 8
-5 0 -12 -10 -16 -22z m1829 -758 c3 -6 -1 -7 -9 -4 -18 7 -21 14 -7 14 6 0
13 -4 16 -10z"/>
<path d="M5890 1194 c-36 -6 -71 -9 -77 -7 -7 3 -21 2 -30 -2 -10 -5 -26 -7
-35 -6 -10 1 -18 -2 -18 -6 0 -5 -8 -10 -17 -11 -53 -5 -81 -10 -103 -19 -14
-6 -43 -16 -65 -23 -22 -7 -44 -18 -50 -25 -5 -6 -41 -24 -80 -40 -38 -16 -71
-33 -73 -37 -2 -4 -12 -8 -22 -8 -11 0 -41 -8 -67 -19 -26 -10 -54 -16 -61
-14 -16 6 -61 -23 -85 -54 -10 -13 -25 -23 -33 -23 -8 0 -14 -4 -14 -9 0 -5
-11 -11 -25 -13 -14 -3 -25 -1 -25 4 0 9 -10 4 -65 -32 -16 -11 -38 -23 -47
-26 -10 -4 -18 -10 -18 -15 0 -5 -7 -9 -16 -9 -9 0 -34 -18 -56 -40 -21 -23
-43 -38 -48 -35 -6 3 -10 -1 -10 -9 0 -9 -6 -16 -13 -16 -7 0 -19 -9 -27 -20
-8 -11 -21 -20 -30 -20 -13 0 -13 -2 0 -11 12 -9 11 -10 -7 -6 -14 3 -23 0
-23 -6 -1 -13 -35 -57 -44 -57 -4 0 1 12 11 28 l17 27 -35 -30 c-47 -42 -79
-76 -79 -87 0 -5 -6 -16 -12 -23 -33 -36 -38 -46 -38 -67 0 -16 -3 -19 -9 -10
-9 15 -17 7 -41 -43 -8 -16 -22 -37 -31 -45 -9 -8 -14 -21 -12 -27 3 -7 -2
-13 -11 -13 -9 0 -16 -8 -16 -18 0 -11 -7 -32 -15 -49 -8 -16 -16 -44 -18 -61
-2 -18 -7 -35 -12 -40 -4 -4 -5 5 -3 21 4 21 2 25 -7 17 -17 -14 -27 -83 -19
-126 l6 -34 859 0 859 0 0 577 c-1 318 -4 590 -7 605 -6 30 -7 30 -103 12z"/>
<path d="M1208 763 c7 -3 16 -2 19 1 4 3 -2 6 -13 5 -11 0 -14 -3 -6 -6z"/>
</g>
</svg>
